<svg xmlns="http://www.w3.org/2000/svg" width="1024" height="1024" viewBox="0 0 1024 1024">
  <defs>
    <style>
      .cls-1 {
        fill: #faac00;
      }

      .cls-2 {
        fill: #fff;
        fill-rule: evenodd;
      }
    </style>
  </defs>
  <circle class="cls-1" cx="512" cy="512" r="512"/>
  <path id="Color_Fill_2" data-name="Color Fill 2" class="cls-2" d="M297,243c77.895-1.635,140.028,8.317,151,74,3.626,21.709-2.829,39.942-12,52-27.526,36.189-107.946,35.013-126-9-12.378-30.176,19.647-79.362,34-60,5.8,16.913-1.006,46.906,30,41,25.819-4.918,32.98-39.583,12-55-56.837-41.766-158.845,2.038-175,50-24.788,73.591,64.376,87.231,110,101,68.06,20.54,132.365,39.83,159,102,6.4,14.944,6.049,33.553,9,52,2.466,15.417-2.308,34.239-5,46-18.062,78.909-70.771,124.16-149,143-85.622,20.62-174.392-17.474-197-75-35.791-91.072,46.017-186.81,141-149,21.929,8.729,40.458,25.858,47,50,14.747,54.422-40.859,109.848-79,70q0.5-3,1-6c6.534-8.756,17.745-10.24,21-23,8.534-33.45-22.411-54.567-53-48-32.043,6.879-52.139,25.331-58,59-11.723,67.349,96.934,105.033,164,91,46.121-9.651,82.914-31.247,103-67,6.363-11.326,9.029-26.856,12-41,3.876-18.453-.612-39.8-5-53-33.274-100.114-159.871-69.94-232-126-58.91-45.786-39.039-141.178,8-182,15.124-13.125,37.988-24.607,59-31Z"/>
  <path id="Color_Fill_1" data-name="Color Fill 1" class="cls-2" d="M728,261c67.309-1.306,116.632,27.636,137,73,21.812,48.58,2.732,116.168-28,140-48.594,37.684-114.844,10.521-128-42-9.252-36.938,10.908-81.8,42-85l6,6c-2.395,29.845-14.419,51.332,13,67,5.457,3.119,16.273,7.672,27,5,36.861-9.181,44.705-69.258,22-100-11.8-15.971-29.951-23.967-52-30-83.524-22.854-144.217,39.81-167,95C540.676,533.707,605.113,745.3,781,705c37-8.476,64.206-33.037,84-59,6.541-8.579,9.985-18.879,19-25,5.638,0.415,7.786,1.129,10,5,8.24,20.7-23.6,62.065-32,73-57.969,75.5-176.454,93.062-260,28-105.69-82.306-102.36-291.746-16-391,24.112-27.712,55.94-53.681,95-66Z"/>
</svg>
